<?xml version="1.0" standalone="no"?>
<!DOCTYPE svg PUBLIC "-//W3C//DTD SVG 20010904//EN"
 "http://www.w3.org/TR/2001/REC-SVG-20010904/DTD/svg10.dtd">
<svg version="1.0" xmlns="http://www.w3.org/2000/svg"
 width="1000.000000pt" height="1000.000000pt" viewBox="0 0 1000.000000 1000.000000"
 preserveAspectRatio="xMidYMid meet">
<metadata>
Created by potrace 1.14, written by Peter Selinger 2001-2017
</metadata>
<g transform="translate(0.000000,1000.000000) scale(0.100000,-0.100000)"
fill="#000000" stroke="none">
<path d="M4805 9994 c-573 -35 -992 -115 -1465 -280 -1453 -506 -2622 -1704
-3094 -3171 -166 -517 -239 -992 -239 -1543 0 -295 10 -444 49 -719 246 -1729
1396 -3212 3019 -3894 466 -195 988 -322 1520 -368 180 -16 630 -16 810 0
1180 103 2242 586 3079 1401 796 775 1305 1774 1460 2861 39 275 49 424 49
719 0 295 -10 444 -49 719 -292 2055 -1855 3729 -3889 4166 -184 39 -453 79
-637 94 -138 12 -518 21 -613 15z m-1097 -5404 c693 -2115 1263 -3855 1267
-3867 6 -23 5 -23 -94 -23 -192 0 -570 48 -829 106 -297 66 -675 199 -929 327
l-72 37 -86 262 c-48 145 -473 1433 -946 2864 -472 1431 -859 2607 -859 2614
0 7 25 60 55 116 277 520 658 976 1130 1352 49 39 92 68 96 64 4 -4 574 -1737
1267 -3852z m4140 3626 c444 -392 833 -924 1072 -1466 l38 -87 -799 -2429
c-440 -1336 -836 -2541 -881 -2677 l-81 -248 -41 -27 c-71 -45 -336 -179 -460
-232 -320 -137 -639 -231 -979 -289 -123 -22 -497 -64 -504 -57 -6 6 2501
7616 2509 7616 5 0 61 -47 126 -104z"/>
</g>
</svg>
